<?xml version="1.0" encoding="UTF-8"?>
<!DOCTYPE svg PUBLIC "-//W3C//DTD SVG 1.1//EN" "http://www.w3.org/Graphics/SVG/1.1/DTD/svg11.dtd">
<!-- Creator: CorelDRAW X7 -->
<svg xmlns="http://www.w3.org/2000/svg" xml:space="preserve" width="0.520835in" height="0.520835in" version="1.1" style="shape-rendering:geometricPrecision; text-rendering:geometricPrecision; image-rendering:optimizeQuality; fill-rule:evenodd; clip-rule:evenodd"
viewBox="0 0 521 521"
 xmlns:xlink="http://www.w3.org/1999/xlink">
 <defs>
  <style type="text/css">
   <![CDATA[
    .fil0 {fill:#ECECEC}
    .fil1 {fill:#ECECEC;fill-rule:nonzero}
   ]]>
  </style>
 </defs>
 <g id="Layer_x0020_1">
  <metadata id="CorelCorpID_0Corel-Layer"/>
  <g id="_949763168">
   <g>
    <rect class="fil0" x="112" y="171" width="297.807" height="38.6569" rx="95" ry="19"/>
    <rect class="fil0" x="112" y="241" width="297.807" height="38.6569" rx="95" ry="19"/>
    <rect class="fil0" x="112" y="311" width="297.807" height="38.6569" rx="95" ry="19"/>
   </g>
   <path class="fil1" d="M26 260c0,130 105,235 234,235 130,0 235,-105 235,-235 0,-129 -105,-234 -235,-234 -129,0 -234,105 -234,234zm40 0c0,-107 87,-194 194,-194 108,0 195,87 195,194 0,108 -87,195 -195,195 -107,0 -194,-87 -194,-195z"/>
  </g>
 </g>
</svg>
